<svg width="1000" height="600" viewBox="0 0 1000 600" xmlns="http://www.w3.org/2000/svg">
  <defs>
    <mask id="ink-mask">
      <rect width="1000" height="600" fill="white"/>
      <!-- 顶部边缘 -->
      <path d="M0,0 C50,-10 100,15 150,5 C200,-5 250,20 300,10 C350,0 400,15 450,5 C500,-5 550,20 600,10 C650,0 700,15 750,5 C800,-5 850,20 900,10 C950,0 1000,15 1000,5 L1000,0 L0,0 Z" fill="black"/>
      
      <!-- 右侧边缘 -->
      <path d="M1000,0 C990,50 1010,100 1000,150 C990,200 1010,250 1000,300 C990,350 1010,400 1000,450 C990,500 1010,550 1000,600 L1000,0 Z" fill="black"/>
      
      <!-- 底部边缘 -->
      <path d="M0,600 C50,610 100,585 150,595 C200,605 250,580 300,590 C350,600 400,585 450,595 C500,605 550,580 600,590 C650,600 700,585 750,595 C800,605 850,580 900,590 C950,600 1000,585 1000,595 L1000,600 L0,600 Z" fill="black"/>
      
      <!-- 左侧边缘 -->
      <path d="M0,0 C10,50 -10,100 0,150 C10,200 -10,250 0,300 C10,350 -10,400 0,450 C10,500 -10,550 0,600 L0,0 Z" fill="black"/>
      
      <!-- 水墨效果 - 右下角 -->
      <path d="M800,450 C830,470 870,460 900,480 C930,500 950,530 980,540 C960,510 970,480 950,450 C930,420 900,410 880,390 C860,370 830,380 810,400 C790,420 780,440 800,450 Z" fill="black" opacity="0.7"/>
      
      <!-- 水墨效果 - 左上角 -->
      <path d="M150,100 C120,80 80,90 50,70 C20,50 0,20 -30,10 C-10,40 -20,70 0,100 C20,130 50,140 70,160 C90,180 120,170 140,150 C160,130 170,110 150,100 Z" fill="black" opacity="0.7"/>
    </mask>
  </defs>
  
  <rect width="1000" height="600" fill="white" mask="url(#ink-mask)"/>
</svg> 