<?xml version="1.0" encoding="UTF-8"?>
<svg width="300" height="300" viewBox="0 0 300 300" xmlns="http://www.w3.org/2000/svg">
  <!-- 水墨效果背景 -->
  <defs>
    <filter id="ink-blur" x="-50%" y="-50%" width="200%" height="200%">
      <feGaussianBlur in="SourceGraphic" stdDeviation="3" />
    </filter>
    
    <filter id="ink-texture" x="-50%" y="-50%" width="200%" height="200%">
      <feTurbulence type="fractalNoise" baseFrequency="0.01" numOctaves="3" seed="5" />
      <feDisplacementMap in="SourceGraphic" scale="5" />
    </filter>
  </defs>
  
  <!-- 水面 - 淡淡的墨色圆形 -->
  <ellipse cx="150" cy="200" rx="120" ry="40" fill="#587465" opacity="0.1" filter="url(#ink-blur)" />
  
  <!-- 荷叶 - 左侧 -->
  <path d="M70,180 Q90,150 120,160 Q150,170 140,190 Q130,210 100,200 Q80,195 70,180 Z" 
        fill="#587465" opacity="0.6" filter="url(#ink-texture)" />
  
  <!-- 荷叶 - 右侧 -->
  <path d="M200,170 Q220,150 240,170 Q260,190 240,200 Q220,205 200,195 Q190,185 200,170 Z" 
        fill="#587465" opacity="0.4" filter="url(#ink-texture)" />
  
  <!-- 荷花茎 -->
  <path d="M150,200 C150,180 145,150 150,120" 
        stroke="#2D2D2D" stroke-width="2" fill="none" opacity="0.7" />
  
  <!-- 荷花花瓣 - 底层 -->
  <g opacity="0.8">
    <path d="M130,120 Q140,100 150,110 Q160,100 170,120 Q160,130 150,125 Q140,130 130,120 Z" 
          fill="#C84630" opacity="0.5" filter="url(#ink-blur)" />
    <path d="M120,130 Q135,115 145,125 Q140,140 120,130 Z" 
          fill="#C84630" opacity="0.6" filter="url(#ink-blur)" />
    <path d="M180,130 Q165,115 155,125 Q160,140 180,130 Z" 
          fill="#C84630" opacity="0.6" filter="url(#ink-blur)" />
  </g>
  
  <!-- 荷花花瓣 - 中层 -->
  <g opacity="0.9">
    <path d="M135,110 Q145,90 150,100 Q155,90 165,110 Q155,120 150,115 Q145,120 135,110 Z" 
          fill="#C84630" opacity="0.7" filter="url(#ink-blur)" />
    <path d="M125,115 Q140,100 145,110 Q140,125 125,115 Z" 
          fill="#C84630" opacity="0.7" filter="url(#ink-blur)" />
    <path d="M175,115 Q160,100 155,110 Q160,125 175,115 Z" 
          fill="#C84630" opacity="0.7" filter="url(#ink-blur)" />
  </g>
  
  <!-- 荷花花瓣 - 顶层 -->
  <g opacity="1">
    <path d="M140,100 Q145,85 150,90 Q155,85 160,100 Q155,110 150,105 Q145,110 140,100 Z" 
          fill="#C84630" opacity="0.8" filter="url(#ink-blur)" />
  </g>
  
  <!-- 荷花花蕊 -->
  <circle cx="150" cy="100" r="5" fill="#F8F6F2" opacity="0.9" />
  <circle cx="150" cy="100" r="3" fill="#2D2D2D" opacity="0.7" />
  
  <!-- 水滴 - 点缀 -->
  <circle cx="90" cy="170" r="2" fill="#F8F6F2" opacity="0.8" />
  <circle cx="220" cy="180" r="1.5" fill="#F8F6F2" opacity="0.7" />
  
  <!-- 墨滴效果 -->
  <circle cx="130" cy="210" r="3" fill="#2D2D2D" opacity="0.2" filter="url(#ink-blur)" />
  <circle cx="170" cy="205" r="2" fill="#2D2D2D" opacity="0.15" filter="url(#ink-blur)" />
  
  <!-- 水墨晕染效果 -->
  <ellipse cx="150" cy="200" rx="100" ry="20" fill="#587465" opacity="0.05" filter="url(#ink-blur)" />
</svg> 